<?xml version="1.0" encoding="utf-8"?>
<!-- Generator: Adobe Illustrator 24.0.2, SVG Export Plug-In . SVG Version: 6.00 Build 0)  -->
<svg version="1.1" id="Layer_1" xmlns="http://www.w3.org/2000/svg" xmlns:xlink="http://www.w3.org/1999/xlink" x="0px" y="0px"
	 viewBox="0 0 512 512" style="enable-background:new 0 0 512 512;" xml:space="preserve">
<style type="text/css">
	.st0{fill:#C1E8F7;}
	.st1{fill:#003580;}
	.st2{fill:#D59A80;}
	.st3{fill:#E0A384;}
	.st4{fill:#554C44;}
	.st5{fill:#FFFFFF;}
	.st6{fill:#EAEAEA;}
	.st7{fill:#003C8F;}
	.st8{fill:#002664;}
</style>
<circle id="XMLID_8266_" class="st0" cx="256.0887" cy="255.7101" r="252.9586"/>
<g id="XMLID_7896_">
	<path id="XMLID_7920_" class="st1" d="M430.6841,366.6352c-2.7941,4.3421-31.4812,68.1052-37.6969,97.2068
		c-0.3859,1.8052-0.7508,3.5246-1.1165,5.2475c24.8972-15.8767,46.8249-35.9669,64.7781-59.3011
		C447.2357,389.9378,438.9033,374.5809,430.6841,366.6352z"/>
	<path id="XMLID_7919_" class="st2" d="M256.7151,329.7489c24.1012,0,40.256-13.1797,48.5304-24.1494
		c0.7467-6.3771,0.0707-12.5597-2.6851-17.7504l-2.7001-8.9422c-1.0314,1.3271-2.149,2.6057-3.443,3.7744
		c-15.9907,14.4462-22.1429,19.9555-39.7022,20.0269c-17.5597-0.0715-23.7119-5.5807-39.7026-20.0269
		c-1.2609-1.1386-2.357-2.3792-3.3685-3.6687l-2.6681,8.8365c-2.7787,5.2347-3.4449,11.4779-2.6674,17.9118
		C216.6183,316.699,232.7312,329.7489,256.7151,329.7489z"/>
	<path id="XMLID_7918_" class="st2" d="M213.3953,278.6609l-0.003,0.0154c0.0038-0.0007,0.0083-0.0015,0.012-0.0026
		C213.4043,278.6737,213.3987,278.6655,213.3953,278.6609z"/>
	<path id="XMLID_7917_" class="st2" d="M300.1853,278.6865c-0.0128-0.0613-0.0256-0.123-0.0384-0.1843
		c-0.0368,0.0493-0.0685,0.1008-0.1057,0.1486C300.089,278.6628,300.1375,278.6749,300.1853,278.6865z"/>
	<path id="XMLID_7916_" class="st3" d="M213.7737,278.5827l-0.1298,0.43c1.0115,1.2895,2.1077,2.5301,3.3685,3.6687
		c15.9907,14.4462,22.1429,19.9555,39.7026,20.0269c17.5594-0.0715,23.7115-5.5807,39.7022-20.0269
		c1.294-1.1688,2.4116-2.4473,3.443-3.7744l-0.0982-0.3242c0.0918,0.0222,0.1873,0.0463,0.2791,0.0681
		c0.0372-0.0478,0.0688-0.0993,0.1057-0.1486c12.6696-16.8615,6.3199-44.3941,15.5721-44.0322
		c14.2536,0.5582,20.4332-11.7863,17.0846-27.753c-2.0915-9.9736-9.5771-9.1867-13.6566-6.1853
		c-1.1601,3.3163-2.3033,5.7993-3.0853,5.5635c-2.2521-0.6786-1.2733-20.2858,2.2525-43.2378
		c3.7541-24.4397-26.2784-13.7883-47.3011-14.4673c-21.0231-0.6786-71.3275-5.2197-75.0812,6.3214
		c-3.7541,11.54,5.2554,46.8422,2.2521,48.1994c-0.4104,0.1858-0.8358,0.0011-1.2699-0.4232
		c0.1433,1.2323,0.1129,1.6375-0.1757,0.9201c-1.8425-4.5888-13.4291-9.4857-16.1126,3.3091
		c-3.3482,15.9667,2.8314,28.3112,17.0842,27.753c9.2811-0.3637,2.8581,27.3434,15.6853,44.191
		c0.0034,0.0045,0.006,0.0083,0.006,0.0083C213.5262,278.6436,213.653,278.6124,213.7737,278.5827z"/>
	<path id="XMLID_7915_" class="st4" d="M198.184,202.9109c3.0033-1.3572-6.0062-36.6594-2.2521-48.1994
		c3.7537-11.5411,54.0581-7,75.0812-6.3214c21.0227,0.679,51.0552-9.9725,47.3011,14.4673
		c-3.5258,22.952-4.5046,42.5592-2.2525,43.2378c0.782,0.2359,1.9252-2.2472,3.0853-5.5635
		c2.1825-6.2406,4.4229-15.4818,4.4229-15.4818c10.5115-6.11,6.7574-50.2367,6.7574-57.0265
		c0-6.7883-10.5119-18.3286-15.0164-18.3286c-4.5046,0-0.7508-19.0094-31.5338-27.1564
		c-30.7838-8.1458-57.813-4.0727-72.8291,3.3945c-15.0161,7.468-26.2788,20.3666-33.0358,22.4036
		c-6.7574,2.0369,2.2525,6.7886-3.0033,11.5411c-5.2558,4.7517,3.7545,10.8617,5.2558,20.3659
		c1.5016,9.5049,5.2558,40.0547,8.2591,43.4488c2.5925,2.9307,5.7444,16.1145,8.4904,18.7954
		C197.3481,202.9121,197.7736,203.0968,198.184,202.9109z"/>
	<path id="XMLID_7914_" class="st5" d="M257.0973,407.6634c-0.2065,0.1798-0.4213,0.3848-0.6094,0.5014
		C256.6485,408.1144,256.8557,407.9323,257.0973,407.6634z"/>
	<path id="XMLID_7913_" class="st5" d="M289.7509,338.2216c2.9977-3.1857,5.8008-7.0418,8.194-11.2608
		c-20.0153,14.4255-41.2298,13.1052-41.2298,13.1052s-21.1618,1.1838-41.1068-13.0732c2.3894,4.207,5.1869,8.0514,8.1771,11.2289
		c22.9757,31.5571,32.6988,69.942,32.6988,69.942l0.0008,0.003C256.4849,408.1667,266.7756,369.778,289.7509,338.2216z"/>
	<polygon id="XMLID_7912_" class="st5" points="256.4841,408.1667 256.4845,408.1674 256.4849,408.1674 	"/>
	<path id="XMLID_7911_" class="st6" d="M256.7151,340.0659c0,0,21.2145,1.3203,41.2298-13.1052
		c3.7492-6.6096,6.4512-14.1099,7.3006-21.3612c-8.2745,10.9697-24.4292,24.1494-48.5304,24.1494
		c-23.9838,0-40.0968-13.0499-48.4066-23.988c0.8723,7.213,3.5694,14.6636,7.2998,21.2318
		C235.5532,341.2497,256.7151,340.0659,256.7151,340.0659z"/>
	<path id="XMLID_7910_" class="st1" d="M81.3437,366.4083v-0.0007c-8.253,7.8381-16.6106,23.1822-26.0542,43.076
		c17.9991,23.4677,40.019,43.6666,65.0308,59.6141c-0.3713-1.7258-0.7418-3.4475-1.1281-5.2557
		C112.8553,434.1795,83.1538,368.4618,81.3437,366.4083z"/>
	<path id="XMLID_7907_" class="st7" d="M430.6841,366.6352c0.0538-0.0835,0.1174-0.1881,0.1512-0.2268
		c1.8105-2.0554-18.8401-13.206-45.09-24.9731c-16.482-7.3894-30.464-17.3893-44.1349-24.843
		c2.3984,4.8363,4.7901,10.2997,7.1539,16.529c0,0-39.8279,7.1633-44.127,8.4855c-4.2992,1.3226-0.5846,5.3231-6.1104,11.2014
		c-25.1183,26.7219-36.2848,50.3883-41.4296,54.8552c-0.2415,0.269-0.4488,0.451-0.6094,0.5014
		c-0.0011,0-0.0023,0.0019-0.0023,0.0019l2.3191,0.0008v100.432c48.9529-0.5172,94.5432-14.9457,133.0661-39.51
		c0.3656-1.7228,0.7305-3.4423,1.1165-5.2475C399.2029,434.7404,427.89,370.9772,430.6841,366.6352z M384.6902,467.2545H271.1703
		v-5.7673h113.5199V467.2545z"/>
	<polygon id="XMLID_7906_" class="st7" points="256.4845,408.1674 256.4849,408.1674 256.4849,408.1674 	"/>
	<polygon id="XMLID_7905_" class="st7" points="256.4849,408.1667 256.4849,408.1674 256.4849,408.1667 	"/>
	<path id="XMLID_7902_" class="st7" d="M253.3728,408.1674h3.1116l-0.0004-0.0008c-4.8585-3.0014-15.3426-27.5578-41.4751-55.3585
		c-5.5255-5.8783-1.8105-9.8788-6.11-11.2014c-4.2992-1.3222-44.127-8.4855-44.127-8.4855
		c2.0155-5.3099,4.0509-10.0552,6.0935-14.3431c-13.9354,6.6968-28.3929,15.4664-44.4325,22.6571
		c-26.2491,11.7672-46.8975,22.9159-45.0893,24.9724v0.0007c1.8101,2.0535,31.5116,67.7712,37.8485,97.4336
		c0.3863,1.8082,0.7568,3.5299,1.1281,5.2557c38.5196,24.5598,84.105,38.9845,133.0526,39.5017V408.1674z M127.7266,467.2545
		v-5.7673h113.5199v5.7673H127.7266z"/>
	<rect id="XMLID_7901_" x="127.7266" y="461.4872" class="st6" width="113.5199" height="5.7673"/>
	<rect id="XMLID_7900_" x="271.1703" y="461.4872" class="st6" width="113.5199" height="5.7673"/>
	<path id="XMLID_7899_" class="st6" d="M258.8047,408.1674h-2.3198h-0.0004h-3.1116v100.432
		c0.9088,0.0102,1.8052,0.0688,2.7163,0.0688s1.8071-0.0587,2.7155-0.0688V408.1674z"/>
	<path id="XMLID_7898_" class="st8" d="M164.772,333.1212c0,0,39.8279,7.1633,44.127,8.4855
		c4.2996,1.3226,0.5846,5.3231,6.11,11.2014c26.1325,27.8008,36.6166,52.3571,41.4751,55.3585l0.0008,0.0008l0,0v-0.0008
		c0,0-9.7238-38.3879-32.6996-69.945c-2.9901-3.1775-5.7877-7.0219-8.1771-11.2289c-3.7304-6.5682-6.4275-14.0189-7.2998-21.2318
		c-0.7775-6.4339-0.1113-12.6771,2.6674-17.9118l2.6681-8.8365l0.1298-0.43c-0.1207,0.0297-0.2475,0.0609-0.3694,0.091
		c-0.0038,0.0011-0.0083,0.0019-0.012,0.0026c-10.7899,2.6471-26.866,7.2224-42.5268,40.1017
		C168.8229,323.066,166.7874,327.8113,164.772,333.1212z"/>
	<path id="XMLID_7897_" class="st8" d="M299.7621,278.5827l0.0982,0.3242l2.7001,8.9422
		c2.7558,5.1907,3.4317,11.3733,2.6851,17.7504c-0.8494,7.2513-3.5514,14.7516-7.3006,21.3612
		c-2.3932,4.2191-5.1963,8.0751-8.194,11.2608c-22.9753,31.5564-33.2653,69.9405-33.2653,69.9405l-0.0007,0.0053
		c0,0,0.0019-0.0026,0.003-0.0026c0.1881-0.1166,0.4029-0.3216,0.6094-0.5014c5.1448-4.4669,16.3112-28.1333,41.4296-54.8552
		c5.5258-5.8783,1.8112-9.8788,6.1104-11.2014c4.2992-1.3222,44.127-8.4855,44.127-8.4855
		c-2.3638-6.2293-4.7555-11.6927-7.1539-16.529c-15.3035-30.8609-30.8793-35.3165-41.425-37.9057
		c-0.0478-0.0117-0.0963-0.0237-0.1441-0.0357C299.9495,278.629,299.8539,278.6049,299.7621,278.5827z"/>
</g>
</svg>
